<svg width="680" height="75" viewBox="0 0 680 75" fill="none" xmlns="http://www.w3.org/2000/svg">
<g id="Group 1">
<path id="Vector" d="M59.5423 2.47266V15.7757H36.3979L37.5848 14.5888V73.1911H21.9575V14.5888L23.1443 15.7757H0V2.47266H59.5423Z" fill="#141414"/>
<path id="Vector_2" d="M78.2997 44.5825V73.1912H63.4883V0H78.2997V35.3347L78.2255 35.4089C78.7864 32.4581 79.6186 29.8535 80.7229 27.5952C81.844 25.3203 83.2203 23.4163 84.8523 21.8833C86.4842 20.3502 88.3556 19.188 90.4653 18.3968C92.5755 17.589 94.9083 17.1852 97.463 17.1852C100.398 17.1852 102.994 17.7126 105.252 18.7677C107.511 19.8227 109.398 21.3805 110.914 23.4411C112.431 25.5016 113.585 28.0485 114.376 31.0816C115.167 34.0983 115.563 37.5765 115.563 41.5164V73.1912H100.752V43.9891C100.752 41.6647 100.529 39.6371 100.084 37.9063C99.6558 36.1589 98.996 34.7082 98.1059 33.5543C97.2326 32.4004 96.1277 31.535 94.7925 30.958C93.4741 30.381 91.9242 30.0926 90.1438 30.0926C88.8912 30.0926 87.729 30.2327 86.6573 30.5129C85.5862 30.7931 84.605 31.2135 83.7148 31.774C82.8416 32.318 82.0666 33.0021 81.3905 33.8263C80.7151 34.6341 80.1463 35.5819 79.6844 36.6699C79.2393 37.7414 78.8931 38.9365 78.6458 40.2553C78.4155 41.5741 78.2997 43.0165 78.2997 44.5825Z" fill="#141414"/>
<path id="Vector_3" d="M134.644 46.9072C134.644 49.3799 134.957 51.6053 135.583 53.5835C136.226 55.5451 137.141 57.21 138.328 58.5783C139.515 59.9465 140.957 61.0012 142.655 61.743C144.369 62.4685 146.306 62.831 148.466 62.831C149.9 62.831 151.219 62.6664 152.422 62.3365C153.642 61.9903 154.738 61.4795 155.711 60.8034C156.7 60.1113 157.573 59.2624 158.332 58.2568C159.106 57.2348 159.758 56.0561 160.285 54.7209H174.207C173.465 57.82 172.303 60.6056 170.72 63.0783C169.138 65.5509 167.217 67.6449 164.959 69.3589C162.717 71.0735 160.162 72.384 157.294 73.2905C154.442 74.2138 151.359 74.6752 148.046 74.6752C143.924 74.6752 140.174 73.9828 136.795 72.5981C133.415 71.2134 130.514 69.26 128.091 66.7378C125.684 64.1994 123.813 61.1665 122.478 57.6387C121.159 54.0945 120.5 50.1712 120.5 45.8687C120.5 41.5991 121.151 37.7006 122.453 34.1729C123.772 30.6452 125.626 27.6285 128.017 25.1229C130.407 22.6007 133.275 20.6473 136.622 19.2626C139.968 17.8779 143.677 17.1855 147.749 17.1855C151.771 17.1855 155.422 17.8696 158.703 19.2379C161.999 20.5896 164.811 22.5183 167.135 25.024C169.475 27.5131 171.28 30.5216 172.55 34.0493C173.819 37.5605 174.454 41.4755 174.454 45.7945C174.454 46.4539 174.437 47.1215 174.405 47.7974C174.371 48.4567 174.322 49.1326 174.256 49.825H129.674V40.676H166.442L160.434 49.6766C160.5 49.0337 160.541 48.399 160.557 47.7726C160.59 47.1298 160.607 46.5033 160.607 45.8934C160.607 43.091 160.326 40.6348 159.766 38.5248C159.222 36.3983 158.414 34.618 157.343 33.1838C156.271 31.7497 154.936 30.6699 153.337 29.9446C151.755 29.2028 149.916 28.8319 147.823 28.8319C145.746 28.8319 143.892 29.1945 142.26 29.9199C140.628 30.6452 139.243 31.7002 138.106 33.0849C136.984 34.4531 136.127 36.1345 135.534 38.1292C134.94 40.1238 134.644 42.3822 134.644 44.9043V46.9072Z" fill="#141414"/>
<path id="Vector_4" d="M263.848 2.47266V73.1911H248.22V43.2225L249.011 44.6072H217.559L218.647 43.2225V73.1911H203.02V2.47266H218.647V32.6394L217.559 31.2053H249.011L248.22 32.6394V2.47266H263.848Z" fill="#141414"/>
<path id="Vector_5" d="M307.4 47.2769V18.668H322.211V73.1904H307.4V56.5248L307.474 56.4506C306.914 59.4013 306.073 62.0138 304.952 64.2887C303.848 66.5473 302.479 68.4428 300.847 69.9759C299.215 71.5089 297.345 72.6711 295.234 73.4624C293.124 74.2705 290.792 74.674 288.237 74.674C285.303 74.674 282.706 74.1469 280.448 73.0914C278.189 72.0366 276.302 70.4788 274.785 68.4181C273.269 66.3579 272.115 63.8189 271.324 60.8022C270.532 57.7694 270.137 54.2828 270.137 50.3431V18.668H284.948V47.8704C284.948 50.1947 285.163 52.2305 285.591 53.9779C286.036 55.7088 286.696 57.1512 287.569 58.3051C288.459 59.459 289.564 60.3246 290.883 60.9011C292.218 61.4783 293.776 61.7666 295.556 61.7666C296.809 61.7666 297.971 61.6266 299.042 61.3462C300.114 61.0664 301.087 60.6538 301.96 60.1102C302.85 59.5496 303.633 58.8656 304.309 58.0578C304.985 57.2336 305.546 56.2858 305.991 55.2142C306.452 54.1263 306.799 52.9229 307.029 51.6041C307.276 50.2853 307.4 48.843 307.4 47.2769Z" fill="#141414"/>
<path id="Vector_6" d="M343.343 48.2907V73.1904H328.531V18.668H343.343V37.8807L343.293 37.9549C343.755 34.9877 344.464 32.3172 345.42 29.9434C346.376 27.5531 347.604 25.5255 349.104 23.8606C350.604 22.1956 352.385 20.9181 354.445 20.0279C356.506 19.1213 358.88 18.668 361.566 18.668H364.806V32.6139H359.094C356.061 32.6139 353.53 32.9271 351.502 33.5535C349.492 34.18 347.876 35.136 346.656 36.4218C345.453 37.7076 344.596 39.3396 344.084 41.3178C343.59 43.2794 343.343 45.6037 343.343 48.2907Z" fill="#141414"/>
<path id="Vector_7" d="M384.585 48.2907V73.1904H369.773V18.668H384.585V37.8807L384.535 37.9549C384.997 34.9877 385.706 32.3172 386.662 29.9434C387.618 27.5531 388.846 25.5255 390.346 23.8606C391.846 22.1956 393.626 20.9181 395.687 20.0279C397.748 19.1213 400.122 18.668 402.809 18.668H406.048V32.6139H400.336C397.303 32.6139 394.772 32.9271 392.745 33.5535C390.733 34.18 389.118 35.136 387.898 36.4218C386.695 37.7076 385.837 39.3396 385.327 41.3178C384.832 43.2794 384.585 45.6037 384.585 48.2907Z" fill="#141414"/>
<path id="Vector_8" d="M425.831 18.6688V73.1912H411.019V18.6688H425.831ZM425.979 0V12.9569H410.871V0H425.979Z" fill="#141414"/>
<path id="Vector_9" d="M445.942 45.9181C445.942 48.4403 446.23 50.6904 446.807 52.6686C447.384 54.6302 448.216 56.2869 449.304 57.6387C450.392 58.9904 451.728 60.0206 453.31 60.7292C454.893 61.4216 456.689 61.7677 458.701 61.7677C460.382 61.7677 461.866 61.5205 463.151 61.0259C464.453 60.5314 465.566 59.8394 466.49 58.9492C467.429 58.0426 468.196 56.971 468.789 55.7347C469.383 54.4984 469.819 53.1384 470.1 51.6548H484.862C484.416 55.0341 483.485 58.1332 482.067 60.9518C480.666 63.7706 478.837 66.1938 476.578 68.2214C474.336 70.2491 471.707 71.8316 468.69 72.969C465.674 74.1064 462.335 74.6752 458.676 74.6752C455.956 74.6752 453.384 74.3706 450.961 73.7603C448.538 73.1505 446.304 72.2604 444.26 71.0898C442.216 69.9198 440.378 68.5019 438.746 66.8367C437.114 65.1553 435.721 63.2514 434.567 61.1248C433.43 58.9821 432.556 56.6413 431.946 54.1027C431.336 51.5476 431.031 48.8194 431.031 45.9181C431.031 43.0168 431.336 40.2969 431.946 37.7583C432.556 35.2032 433.43 32.8624 434.567 30.7359C435.721 28.6093 437.114 26.7054 438.746 25.024C440.378 23.3425 442.216 21.9248 444.26 20.7709C446.304 19.6005 448.538 18.7103 450.961 18.1004C453.384 17.4905 455.956 17.1855 458.676 17.1855C462.335 17.1855 465.674 17.7543 468.69 18.8917C471.707 20.0291 474.336 21.6117 476.578 23.6393C478.837 25.6669 480.666 28.0901 482.067 30.9089C483.485 33.7278 484.416 36.8269 484.862 40.2062H470.1C469.819 38.7226 469.383 37.3627 468.789 36.1263C468.196 34.8734 467.429 33.802 466.49 32.9118C465.566 32.0217 464.453 31.3293 463.151 30.8348C461.866 30.3402 460.382 30.093 458.701 30.093C456.689 30.093 454.893 30.4474 453.31 31.1562C451.728 31.8486 450.392 32.8706 449.304 34.2223C448.216 35.5576 447.384 37.2143 446.807 39.1924C446.23 41.1541 445.942 43.396 445.942 45.9181Z" fill="#141414"/>
<path id="Vector_10" d="M489.474 38.6484C489.474 35.3515 490.076 32.376 491.28 29.7221C492.5 27.068 494.239 24.8179 496.497 22.9716C498.772 21.1089 501.525 19.683 504.756 18.6939C508.003 17.6883 511.647 17.1855 515.685 17.1855C519.856 17.1855 523.573 17.7213 526.837 18.7928C530.118 19.8643 532.887 21.4138 535.145 23.4414C537.42 25.4525 539.159 27.9252 540.362 30.8595C541.566 33.7937 542.167 37.1236 542.167 40.8491V73.1915H527.356V58.9492H527.43C527.034 60.5646 526.491 62.0814 525.798 63.4986C525.106 64.9002 524.282 66.186 523.325 67.356C522.37 68.5103 521.282 69.5404 520.062 70.4469C518.858 71.3539 517.548 72.1283 516.13 72.7712C514.713 73.3978 513.187 73.8676 511.556 74.1806C509.924 74.5105 508.217 74.6752 506.437 74.6752C503.651 74.6752 501.113 74.288 498.821 73.513C496.546 72.7549 494.593 71.6754 492.961 70.2738C491.346 68.8565 490.093 67.1582 489.202 65.18C488.312 63.1856 487.867 60.9849 487.867 58.5783C487.867 55.9902 488.379 53.6824 489.4 51.6548C490.439 49.6107 491.922 47.8798 493.851 46.4621C495.797 45.0444 498.17 43.9647 500.972 43.2229C503.775 42.4811 506.956 42.1102 510.517 42.1102H527.727V51.1108H512.05C510.517 51.1108 509.165 51.2427 507.995 51.5064C506.841 51.7537 505.868 52.141 505.077 52.6686C504.286 53.1796 503.685 53.8143 503.272 54.5725C502.876 55.3308 502.679 56.2128 502.679 57.2183C502.679 58.2404 502.893 59.1553 503.321 59.963C503.75 60.7539 504.368 61.4216 505.176 61.9656C505.984 62.5095 506.981 62.9299 508.168 63.2266C509.372 63.5071 510.74 63.647 512.273 63.647C513.724 63.647 515.1 63.5233 516.402 63.2761C517.705 63.0288 518.916 62.6748 520.037 62.2128C521.158 61.7515 522.163 61.199 523.053 60.5561C523.961 59.897 524.735 59.1635 525.378 58.3557C526.021 57.5315 526.507 56.6496 526.837 55.71C527.183 54.7703 527.356 53.773 527.356 52.718V40.8491C527.356 38.9699 527.084 37.2885 526.54 35.8049C525.996 34.3212 525.213 33.0684 524.191 32.0464C523.169 31.0079 521.908 30.2166 520.408 29.6726C518.924 29.1286 517.235 28.8566 515.339 28.8566C513.427 28.8566 511.77 29.0874 510.369 29.549C508.984 29.9941 507.839 30.6369 506.932 31.4777C506.025 32.3184 505.349 33.3486 504.904 34.5685C504.459 35.7719 504.236 37.1318 504.236 38.6484H489.474Z" fill="#141414"/>
<path id="Vector_11" d="M563.081 44.5829V73.1915H548.27V18.6692H563.081V35.3351L563.007 35.4092C563.567 32.4585 564.399 29.8539 565.504 27.5955C566.625 25.3207 568.002 23.4167 569.634 21.8836C571.266 20.3506 573.136 19.1884 575.247 18.3972C577.356 17.5894 579.689 17.1855 582.244 17.1855C585.178 17.1855 587.775 17.713 590.033 18.7681C592.291 19.8231 594.179 21.3808 595.696 23.4414C597.212 25.502 598.366 28.0488 599.157 31.082C599.949 34.0987 600.344 37.5769 600.344 41.5168V73.1915H585.533V43.9894C585.533 41.6651 585.31 39.6375 584.865 37.9066C584.436 36.1592 583.777 34.7086 582.887 33.5547C582.013 32.4008 580.909 31.5354 579.574 30.9584C578.255 30.3814 576.705 30.093 574.925 30.093C573.672 30.093 572.51 30.2331 571.439 30.5133C570.367 30.7935 569.386 31.2139 568.496 31.7744C567.622 32.3184 566.847 33.0025 566.172 33.8267C565.496 34.6344 564.927 35.5823 564.466 36.6703C564.021 37.7418 563.674 38.9369 563.427 40.2557C563.196 41.5745 563.081 43.0168 563.081 44.5829Z" fill="#141414"/>
<path id="Vector_12" d="M619.424 46.9072C619.424 49.3799 619.737 51.6053 620.365 53.5835C621.004 55.5451 621.921 57.21 623.109 58.5783C624.297 59.9465 625.738 61.0012 627.433 61.743C629.152 62.4685 631.088 62.831 633.247 62.831C634.682 62.831 635.997 62.6664 637.203 62.3365C638.421 61.9903 639.519 61.4795 640.49 60.8034C641.479 60.1113 642.353 59.2624 643.113 58.2568C643.885 57.2348 644.537 56.0561 645.067 54.7209H658.987C658.245 57.82 657.081 60.6056 655.501 63.0783C653.915 65.5509 651.997 67.6449 649.741 69.3589C647.498 71.0735 644.941 72.384 642.076 73.2905C639.223 74.2138 636.142 74.6752 632.825 74.6752C628.705 74.6752 624.954 73.9828 621.577 72.5981C618.193 71.2134 615.293 69.26 612.868 66.7378C610.462 64.1994 608.592 61.1665 607.259 57.6387C605.939 54.0945 605.281 50.1712 605.281 45.8687C605.281 41.5991 605.933 37.7006 607.235 34.1729C608.55 30.6452 610.408 27.6285 612.796 25.1229C615.19 22.6007 618.055 20.6473 621.402 19.2626C624.749 17.8779 628.458 17.1855 632.529 17.1855C636.552 17.1855 640.2 17.8696 643.481 19.2379C646.78 20.5896 649.591 22.5183 651.912 25.024C654.259 27.5131 656.062 30.5216 657.328 34.0493C658.601 37.5605 659.234 41.4755 659.234 45.7945C659.234 46.4539 659.216 47.1215 659.186 47.7974C659.15 48.4567 659.101 49.1326 659.035 49.825H614.454V40.676H651.225L645.212 49.6766C645.278 49.0337 645.321 48.399 645.339 47.7726C645.369 47.1298 645.387 46.5033 645.387 45.8934C645.387 43.091 645.11 40.6348 644.549 38.5248C644 36.3983 643.192 34.618 642.124 33.1838C641.051 31.7497 639.718 30.6699 638.12 29.9446C636.534 29.2028 634.694 28.8319 632.601 28.8319C630.527 28.8319 628.669 29.1945 627.041 29.9199C625.407 30.6452 624.025 31.7002 622.886 33.0849C621.764 34.4531 620.907 36.1345 620.316 38.1292C619.719 40.1238 619.424 42.3822 619.424 44.9043V46.9072Z" fill="#141414"/>
<path id="Vector_13" d="M680.001 57.2676V73.1914H664.719V57.2676H680.001Z" fill="#141414"/>
</g>
</svg>
